<svg width="25" height="26" viewBox="0 0 25 26" fill="none" xmlns="http://www.w3.org/2000/svg">
<g clip-path="url(#clip0_396_86)">
<path d="M7.77969 2.62394C7.46815 2.57488 7.45489 2.56981 7.60238 2.54782C7.88409 2.50383 8.54695 2.56304 9.00432 2.673C10.0715 2.93013 11.0426 3.58988 12.08 4.76221L12.3551 5.07348L12.7495 5.00919C14.4099 4.73853 16.0969 4.95337 17.5104 5.61481C17.8999 5.79751 18.513 6.15953 18.5876 6.25257C18.6141 6.28302 18.6588 6.47248 18.687 6.67718C18.7931 7.38429 18.7417 7.92393 18.5279 8.32824C18.4119 8.54816 18.4053 8.61752 18.4832 8.80698C18.5204 8.88502 18.5784 8.95081 18.6504 8.99687C18.7225 9.04292 18.8058 9.0674 18.8908 9.0675C19.2422 9.0675 19.62 8.49233 19.794 7.69048L19.8636 7.37076L20.0011 7.52978C20.7584 8.39929 21.3517 9.58346 21.4528 10.4259L21.4793 10.6458L21.3534 10.4462C21.1703 10.1405 20.9243 9.879 20.6325 9.67988C20.1254 9.33986 19.5885 9.22313 18.17 9.14701C16.8874 9.07934 16.1615 8.96769 15.4423 8.72917C14.2177 8.32317 13.6012 7.78522 12.1463 5.84995C11.5 4.98889 11.1023 4.51353 10.7046 4.13122C9.80141 3.26001 8.91484 2.80326 7.77969 2.62563V2.62394Z" fill="white"/>
<path d="M18.8796 4.54416C18.9111 3.96899 18.9873 3.58837 19.1431 3.24158C19.1772 3.15394 19.22 3.07005 19.2707 2.99121C19.279 2.99121 19.2524 3.09271 19.211 3.2162C19.0983 3.55454 19.0784 4.01467 19.158 4.55093C19.2574 5.23098 19.3121 5.32909 20.0197 6.06328C20.3528 6.40838 20.7389 6.84144 20.8798 7.02922L21.135 7.36755L20.8798 7.12564C20.5682 6.8296 19.8523 6.25105 19.6932 6.16816C19.5872 6.11403 19.5706 6.11403 19.506 6.18C19.4447 6.2409 19.4331 6.33225 19.4231 6.76532C19.4115 7.44029 19.3204 7.87336 19.1016 8.30474C18.984 8.54157 18.9658 8.49082 19.0718 8.22523C19.1514 8.02899 19.1596 7.94103 19.1596 7.28804C19.1596 5.977 19.0039 5.66066 18.104 5.12271C17.8326 4.96268 17.5539 4.8159 17.2688 4.68288C17.1284 4.62524 16.9921 4.5574 16.8612 4.47988C16.886 4.4545 17.7643 4.71502 18.1173 4.85204C18.6443 5.05843 18.7304 5.0838 18.7951 5.06012C18.8365 5.0432 18.858 4.91633 18.8779 4.54416H18.8796ZM8.3849 6.789C7.75353 5.90595 7.36079 4.55093 7.44696 3.53762L7.47182 3.22466L7.61599 3.25004C7.88776 3.30079 8.35342 3.47672 8.57216 3.61205C9.17039 3.98084 9.43056 4.46634 9.69405 5.71479C9.77193 6.08019 9.87302 6.49296 9.91942 6.63506C9.99399 6.86005 10.279 7.38616 10.5094 7.72788C10.6751 7.97486 10.5657 8.09159 10.1978 8.05775C9.63605 8.007 8.87542 7.47413 8.3849 6.789ZM18.1107 13.3645C15.1543 12.1584 14.1136 11.1095 14.1136 9.34173C14.1136 9.08121 14.1219 8.86806 14.1335 8.86806C14.1435 8.86806 14.2578 8.95264 14.3871 9.05922C14.987 9.54642 15.6581 9.75449 17.5174 10.0302C18.6111 10.1926 19.2243 10.3229 19.7927 10.5141C21.599 11.1214 22.7142 12.3529 22.981 14.0327C23.0572 14.5199 23.0142 15.4334 22.8866 15.9155C22.7871 16.2962 22.4855 16.9813 22.406 17.0084C22.3828 17.0168 22.3612 16.9305 22.3563 16.8121C22.3264 16.1828 22.0116 15.5688 21.4846 15.1086C20.8847 14.5859 20.0794 14.1697 18.1107 13.3662V13.3645ZM16.0359 13.8669C16.0012 13.6527 15.9536 13.4408 15.8934 13.2326L15.8172 13.0042L15.958 13.1649C16.1519 13.3848 16.306 13.6673 16.4353 14.0446C16.5347 14.3321 16.5447 14.4167 16.5447 14.8836C16.5447 15.3421 16.5314 15.4385 16.4386 15.6956C16.3113 16.0769 16.0978 16.4223 15.8155 16.7039C15.2753 17.2621 14.581 17.57 13.5784 17.6986C13.4044 17.7206 12.8973 17.7578 12.4515 17.7815C11.3263 17.8407 10.5856 17.9642 9.92107 18.201C9.86083 18.228 9.79623 18.2435 9.7305 18.2467C9.70399 18.2196 10.158 17.9455 10.5309 17.7628C11.0579 17.504 11.5832 17.3636 12.7598 17.1657C13.3398 17.0676 13.9413 16.9475 14.0938 16.9001C15.5322 16.4535 16.2729 15.2981 16.0359 13.8669Z" fill="white"/>
<path d="M17.3912 16.3093C16.9985 15.4533 16.9073 14.6261 17.1228 13.8547C17.146 13.7701 17.1824 13.7041 17.2056 13.7041C17.2272 13.7041 17.3216 13.7549 17.4111 13.8174C17.5934 13.9409 17.9546 14.149 18.9224 14.6836C20.1288 15.3518 20.8182 15.8677 21.2855 16.4598C21.6948 16.9758 21.9484 17.5662 22.071 18.2834C22.1406 18.6894 22.0992 19.6706 21.9964 20.08C21.6716 21.3724 20.9193 22.3874 19.8421 22.9795C19.6847 23.0658 19.5438 23.1368 19.5273 23.1368C19.5124 23.1368 19.5704 22.9897 19.6549 22.8087C20.0178 22.0406 20.0592 21.2946 19.7858 20.464C19.6168 19.9548 19.2754 19.334 18.586 18.2834C17.784 17.0654 17.5884 16.739 17.3912 16.3093ZM6.28504 20.9326C7.38373 19.992 8.74756 19.3255 9.99207 19.1191C10.6331 19.0352 11.2833 19.0609 11.916 19.1953C12.7114 19.4016 13.424 19.8652 13.7936 20.4149C14.1548 20.9546 14.3106 21.4232 14.473 22.4686C14.536 22.8797 14.6056 23.2942 14.6254 23.3872C14.7464 23.9285 14.9834 24.3616 15.275 24.5781C15.739 24.9232 16.5411 24.9452 17.3282 24.634C17.41 24.5955 17.4964 24.5682 17.5851 24.5528C17.6133 24.5815 17.2172 24.8505 16.9388 24.9926C16.6085 25.1719 16.239 25.2627 15.865 25.2565C15.1441 25.2565 14.5459 24.8843 14.0454 24.1265C13.8619 23.8056 13.6981 23.4734 13.5549 23.1318C13.028 21.9121 12.7678 21.5416 12.1563 21.1339C11.6227 20.7787 10.935 20.7161 10.418 20.9732C9.73853 21.3115 9.54962 22.1912 10.0368 22.7494C10.2644 22.9893 10.5622 23.1472 10.8853 23.1994C11.0136 23.2174 11.1442 23.207 11.2682 23.1688C11.3923 23.1307 11.5068 23.0658 11.6041 22.9785C11.7014 22.8912 11.7792 22.7836 11.8321 22.6629C11.8851 22.5423 11.912 22.4114 11.911 22.2792C11.911 21.9121 11.7718 21.704 11.4222 21.5416C10.9433 21.3234 10.4312 21.5788 10.4329 22.0339C10.4329 22.2284 10.5174 22.3502 10.7096 22.4399C10.8322 22.4957 10.8356 22.4991 10.7345 22.4788C10.297 22.3857 10.1942 21.8495 10.5456 21.4942C10.9698 21.0679 11.8448 21.2557 12.1447 21.8393C12.2706 22.0846 12.2856 22.5718 12.1762 22.8662C11.9276 23.5259 11.2117 23.8727 10.4826 23.6832C9.98544 23.5547 9.78493 23.416 9.1867 22.7917C8.14767 21.7057 7.74499 21.4942 6.24693 21.2574L5.95859 21.2117L6.28504 20.9326Z" fill="white"/>
<path fill-rule="evenodd" clip-rule="evenodd" d="M1.41061 1.49579C4.88067 5.76894 7.27193 7.53166 7.53707 7.90382C7.75581 8.21171 7.67296 8.48914 7.29844 8.70567C7.03211 8.84227 6.74221 8.92445 6.44501 8.94758C6.20141 8.94758 6.1169 8.85285 6.1169 8.85285C5.97604 8.71752 5.8965 8.7412 5.17233 7.43692C4.55664 6.45873 3.93354 5.48543 3.30307 4.51711C3.25004 4.46636 3.2517 4.46636 5.07124 7.77018C5.36456 8.45869 5.12924 8.71075 5.12924 8.80887C5.12924 9.00848 5.07455 9.11337 4.83261 9.38911C4.42827 9.84586 4.24764 10.3601 4.11673 11.4242C3.9709 12.6168 3.55993 13.4593 2.41981 14.9023C1.75364 15.7464 1.64427 15.9003 1.47524 16.2421C1.26313 16.67 1.20513 16.9103 1.18193 17.4499C1.15707 18.0234 1.20513 18.3922 1.37747 18.9386C1.52661 19.419 1.6857 19.7337 2.08838 20.3663C2.43638 20.9127 2.63524 21.3187 2.63524 21.4778C2.63524 21.6029 2.65844 21.6029 3.19867 21.4795C4.48461 21.1851 5.53027 20.6674 6.11856 20.0297C6.48313 19.6355 6.56764 19.419 6.57096 18.8794C6.57261 18.5275 6.56101 18.4531 6.46656 18.2501C6.3141 17.9202 6.0357 17.6444 5.42256 17.2181C4.61718 16.6599 4.2725 16.2116 4.1797 15.5941C4.10016 15.0866 4.1913 14.7297 4.63541 13.7841C5.0961 12.8029 5.21044 12.385 5.28833 11.3988C5.33804 10.7611 5.40598 10.509 5.58661 10.306C5.77553 10.0962 5.94456 10.0252 6.41187 9.96089C7.1725 9.85432 7.65473 9.65639 8.05244 9.28422C8.21186 9.1499 8.34048 8.98153 8.42924 8.79096C8.518 8.60039 8.56473 8.39227 8.56616 8.18126L8.58273 7.82601L8.38884 7.59933C7.69118 6.77379 0.943298 0.846191 0.900212 0.846191C0.891926 0.846191 1.12061 1.13885 1.41061 1.49579ZM3.02798 18.0995C3.10401 17.9624 3.12661 17.8011 3.09129 17.6478C3.05597 17.4945 2.96531 17.3604 2.83741 17.2723C2.58884 17.1031 2.19941 17.1843 2.19941 17.4025C2.19941 17.4702 2.23587 17.5193 2.31873 17.5616C2.45793 17.6343 2.46787 17.7155 2.3585 17.883C2.24747 18.0504 2.25741 18.1976 2.38336 18.2991C2.58718 18.4598 2.87553 18.3719 3.02798 18.0995ZM9.06164 10.1487C8.70536 10.2586 8.35901 10.6426 8.24964 11.0452C8.18501 11.2905 8.22313 11.7219 8.3209 11.8539C8.47998 12.0687 8.63244 12.1245 9.04838 12.1228C9.86038 12.1178 10.5663 11.7642 10.6492 11.321C10.7155 10.959 10.4056 10.4582 9.97804 10.2366C9.68762 10.1163 9.36895 10.0857 9.06164 10.1487ZM10.0128 10.9015C10.1371 10.7204 10.0824 10.5259 9.86867 10.394C9.46433 10.1419 8.84953 10.35 8.84953 10.7391C8.84953 10.9336 9.16936 11.1451 9.46267 11.1451C9.65821 11.1451 9.92667 11.0266 10.0128 10.9015Z" fill="white"/>
</g>
<defs>
<clipPath id="clip0_396_86">
<rect width="23.2" height="25.375" fill="white" transform="translate(0.899994)"/>
</clipPath>
</defs>
</svg>
