<svg width="248" height="78" viewBox="0 0 248 78" fill="none" xmlns="http://www.w3.org/2000/svg">
<path fill-rule="evenodd" clip-rule="evenodd" d="M45.0346 31.6302C44.5682 33.8598 42.4956 39.5832 35.885 42.6821L33.2307 39.7192L28.7511 44.1884C26.2025 44.1546 23.6961 43.5361 21.428 42.3816C19.1601 41.227 17.1917 39.5674 15.677 37.5328C16.1527 37.68 16.6441 37.7718 17.1412 37.8064C17.875 37.8197 18.669 37.5526 18.669 36.3299V24.2696C18.6791 23.9597 18.6164 23.6515 18.4854 23.3698C18.3545 23.0882 18.159 22.8407 17.9147 22.6475C17.6703 22.454 17.3838 22.3201 17.078 22.2561C16.7722 22.1921 16.4556 22.1998 16.1534 22.2788C14.0791 22.7533 12.4227 27.8894 12.4227 27.8894C12.3994 25.518 12.8968 23.1702 13.8802 21.009C14.8636 18.8477 16.3095 16.925 18.1173 15.3744C20.4968 13.3317 23.4095 11.998 26.5198 11.5273C24.2549 12.808 22.983 14.8966 22.983 16.6485C22.983 19.4686 24.6944 19.1269 25.2009 18.7122V34.9897C25.2872 35.1937 25.3996 35.3862 25.5353 35.562C25.7614 35.8725 26.0594 36.1249 26.4039 36.298C26.7485 36.4713 27.1298 36.5601 27.516 36.5572C29.2291 36.5572 31.4522 34.6164 31.4522 34.6164V21.4411C31.4522 20.1007 30.4343 18.4816 29.4146 17.9258C29.4146 17.9258 31.3018 17.5941 32.7576 18.7006C33.0312 18.369 33.3218 18.0517 33.6286 17.75C37.0266 14.4404 40.2275 13.4981 42.8935 13.027C42.8935 13.027 38.0463 16.8077 38.0463 21.8807C38.0463 25.653 38.1449 34.8537 38.1449 34.8537C39.9433 36.5772 42.6176 34.0871 45.0346 31.6302Z" fill="white"/>
<path fill-rule="evenodd" clip-rule="evenodd" d="M56.5455 27.8579C56.5455 43.2434 44.0915 55.7159 28.7288 55.7159C13.3661 55.7159 0.912109 43.2434 0.912109 27.8579C0.912109 12.4724 13.3661 0 28.7288 0C44.0915 0 56.5455 12.4724 56.5455 27.8579ZM28.7288 53.7946C43.032 53.7946 54.6271 42.1823 54.6271 27.8579C54.6271 13.5335 43.032 1.92124 28.7288 1.92124C14.4256 1.92124 2.8305 13.5335 2.8305 27.8579C2.8305 42.1823 14.4256 53.7946 28.7288 53.7946Z" fill="white"/>
<path fill-rule="evenodd" clip-rule="evenodd" d="M86.8367 39.362C85.0739 39.362 83.5277 39.3143 82.1983 39.2217C80.8688 39.1289 79.7218 38.9649 78.7571 38.7372C77.7925 38.507 76.9942 38.1973 76.36 37.8056C75.7256 37.4139 75.2209 36.9241 74.8454 36.3339C74.4702 35.7435 74.2032 35.0423 74.0499 34.2296C73.8941 33.4144 73.8174 32.4667 73.8174 31.3816V17.3105H80.2187V29.2984C80.2187 30.0396 80.2451 30.6747 80.2954 31.2069C80.3455 31.7389 80.4514 32.1915 80.6125 32.5673C80.7712 32.9431 81.001 33.245 81.2997 33.4751C81.5984 33.7055 81.9947 33.8855 82.4916 34.0152C82.986 34.1449 83.5939 34.2323 84.3154 34.2746C85.0369 34.317 85.8985 34.3381 86.8975 34.3381H87.4393C88.4384 34.3381 89.3 34.3143 90.0215 34.2667C90.7432 34.219 91.3509 34.1343 91.8453 34.0073C92.3395 33.8828 92.736 33.7028 93.0345 33.4673C93.3332 33.2317 93.5632 32.9299 93.7217 32.5595C93.8803 32.1889 93.986 31.7362 94.039 31.1988C94.089 30.6615 94.1155 30.029 94.1155 29.2984V17.3105H100.517V31.3789C100.517 32.4536 100.445 33.4012 100.3 34.219C100.155 35.0396 99.8985 35.7435 99.5284 36.3312C99.1584 36.9214 98.6561 37.4112 98.0271 37.8029C97.3981 38.1946 96.6025 38.5043 95.6379 38.7347C94.6732 38.9649 93.5208 39.1264 92.1835 39.219C90.8435 39.3143 89.2815 39.3593 87.4974 39.3593H86.8367V39.362Z" fill="white"/>
<path fill-rule="evenodd" clip-rule="evenodd" d="M133.435 39.0909H123.865L111.263 22.7834H111.139V39.0909H104.861V17.291H114.588L127.036 33.6144H127.16V17.291H133.437V39.0909H133.435Z" fill="white"/>
<path fill-rule="evenodd" clip-rule="evenodd" d="M152.303 28.2941C153.406 28.2941 154.286 28.2597 154.941 28.1937C155.597 28.1249 156.093 27.9846 156.432 27.7702C156.773 27.5558 156.995 27.2594 157.098 26.8782C157.201 26.497 157.254 25.994 157.254 25.3667V24.991C157.254 24.3742 157.201 23.8764 157.098 23.4955C156.995 23.1143 156.77 22.823 156.424 22.6192C156.078 22.4153 155.578 22.2805 154.925 22.2117C154.27 22.1427 153.398 22.111 152.303 22.111H144.324V28.2941H152.303ZM163.7 39.0909H157.375V37.3228C157.375 36.6876 157.349 36.1397 157.299 35.6792C157.246 35.2212 157.14 34.8321 156.974 34.5145C156.81 34.1968 156.577 33.9401 156.278 33.7468C155.98 33.5537 155.586 33.4054 155.094 33.2995C154.606 33.1964 154.003 33.1249 153.287 33.0878C152.57 33.0507 151.717 33.0321 150.728 33.0321H144.327V39.0884H137.986V17.291H154.872C156.646 17.291 158.105 17.3995 159.249 17.6192C160.394 17.8389 161.295 18.2069 161.956 18.723C162.616 19.2392 163.071 19.922 163.325 20.7744C163.578 21.624 163.703 22.6749 163.703 23.9268V24.6945C163.703 25.5495 163.637 26.2985 163.502 26.9391C163.367 27.5796 163.15 28.1328 162.852 28.5986C162.553 29.0619 162.167 29.4457 161.691 29.75C161.218 30.0517 160.634 30.282 159.944 30.4382V30.5625C160.705 30.687 161.332 30.8484 161.824 31.039C162.313 31.2323 162.696 31.5182 162.976 31.8993C163.253 32.2805 163.444 32.7781 163.547 33.3948C163.65 34.0115 163.7 34.7977 163.7 35.7585V39.0909Z" fill="white"/>
<path fill-rule="evenodd" clip-rule="evenodd" d="M191.513 39.0909H167.855V17.291H191.143V22.111H174.196V25.8194H190.247V30.372H174.196V34.128H191.513V39.0909Z" fill="white"/>
<path fill-rule="evenodd" clip-rule="evenodd" d="M212.9 30.642L208.463 21.8941H208.307L203.901 30.642H212.9ZM224.113 39.1095H217.201L215.206 35.1975H201.628L199.665 39.1095H192.814L204.503 17.3096H212.359L224.113 39.1095Z" fill="white"/>
<path fill-rule="evenodd" clip-rule="evenodd" d="M247.421 39.1092H226.451V17.3066H232.853V34.0377H247.417V39.1092H247.421Z" fill="white"/>
<path fill-rule="evenodd" clip-rule="evenodd" d="M112.745 76.8379H93.9102V59.5312H112.447V63.3575H98.9556V66.303H111.732V69.9165H98.9556V72.8979H112.742V76.8379H112.745Z" fill="white"/>
<path fill-rule="evenodd" clip-rule="evenodd" d="M221.1 76.8356H202.563V59.8008H220.81V63.5659H207.531V66.4651H220.108V70.0238H207.531V72.9587H221.1V76.8356Z" fill="white"/>
<path fill-rule="evenodd" clip-rule="evenodd" d="M138.28 76.8359H130.66L120.629 63.8908H120.529V76.8359H115.531V59.5293H123.273L133.183 72.4871H133.28V59.5293H138.277V76.8359H138.28Z" fill="white"/>
<path fill-rule="evenodd" clip-rule="evenodd" d="M198.668 76.8359H191.048L181.017 63.8908H180.918V76.8359H175.92V59.5293H183.662L193.571 72.4871H193.669V59.5293H198.665V76.8359H198.668Z" fill="white"/>
<path fill-rule="evenodd" clip-rule="evenodd" d="M153.006 77.0641C151.407 77.0641 150.026 77.0241 148.864 76.9461C147.704 76.8682 146.717 76.7187 145.905 76.4952C145.093 76.2741 144.433 75.9642 143.926 75.5703C143.419 75.1763 143.025 74.6622 142.742 74.0301C142.463 73.398 142.274 72.6311 142.177 71.7314C142.08 70.8317 142.029 69.7656 142.029 68.533V68.0274C142.029 66.7863 142.08 65.7118 142.184 64.8037C142.284 63.8956 142.478 63.1245 142.762 62.4923C143.046 61.8602 143.442 61.3482 143.949 60.9564C144.456 60.5666 145.115 60.2632 145.928 60.0441C146.74 59.827 147.727 59.6796 148.889 59.6058C150.049 59.5321 151.421 59.4941 153.006 59.4941H153.774C155.105 59.4941 156.271 59.5236 157.268 59.5805C158.267 59.6374 159.125 59.7428 159.845 59.8945C160.562 60.0462 161.156 60.2547 161.623 60.5181C162.09 60.7815 162.46 61.1165 162.732 61.5232C163.003 61.9298 163.193 62.4164 163.298 62.9832C163.402 63.5501 163.455 64.2117 163.455 64.9681V65.6338H158.56V65.4231C158.56 65.0291 158.499 64.6983 158.376 64.4307C158.254 64.1632 158.015 63.9503 157.659 63.7902C157.301 63.6301 156.801 63.5163 156.158 63.451C155.513 63.3857 154.663 63.3519 153.609 63.3519H153.184C152.227 63.3519 151.41 63.3689 150.734 63.4004C150.056 63.4342 149.492 63.5058 149.042 63.6154C148.591 63.7271 148.234 63.885 147.971 64.0894C147.708 64.296 147.51 64.574 147.382 64.928C147.252 65.2819 147.169 65.7202 147.131 66.2407C147.096 66.7632 147.076 67.3889 147.076 68.12V68.4277C147.076 69.1419 147.096 69.755 147.131 70.2649C147.168 70.7748 147.252 71.2047 147.382 71.5523C147.513 71.9021 147.708 72.1802 147.971 72.3846C148.234 72.5889 148.591 72.747 149.042 72.8586C149.492 72.9703 150.056 73.0419 150.734 73.0735C151.41 73.1073 152.227 73.122 153.184 73.122H153.609C154.388 73.122 155.058 73.1073 155.623 73.0778C156.187 73.0483 156.66 73.0039 157.046 72.9429C157.431 72.8817 157.741 72.7955 157.973 72.6837C158.204 72.5721 158.381 72.433 158.506 72.2645C158.633 72.096 158.715 71.8978 158.757 71.6724C158.798 71.4469 158.818 71.1814 158.818 70.876V70.3955H152.206V67.0686H163.655V70.914C163.655 71.7441 163.601 72.4731 163.491 73.1009C163.382 73.7288 163.185 74.2724 162.906 74.7275C162.626 75.1847 162.249 75.5619 161.774 75.861C161.299 76.1623 160.698 76.4004 159.965 76.5773C159.235 76.7544 158.36 76.8788 157.341 76.9525C156.323 77.0262 155.134 77.0641 153.78 77.0641H153.006Z" fill="white"/>
<path fill-rule="evenodd" clip-rule="evenodd" d="M172.236 76.868H167.169V59.6963H172.236V76.868Z" fill="white"/>
</svg>
