<svg width="218" height="46" viewBox="0 0 218 46" fill="none" xmlns="http://www.w3.org/2000/svg">
<path d="M38.661 13.8232C38.1739 13.5425 37.6216 13.3947 37.0594 13.3947C36.4972 13.3947 35.9449 13.5425 35.4578 13.8232L28.1093 18.2008L23.116 21.0559L15.7675 25.4336C15.2804 25.7143 14.7281 25.8621 14.1659 25.8621C13.6037 25.8621 13.0514 25.7143 12.5643 25.4336L6.72319 22.0076C6.24386 21.7214 5.84531 21.3179 5.56511 20.835C5.2849 20.3521 5.13226 19.8059 5.12158 19.2477V12.4908C5.11226 11.9286 5.25648 11.3746 5.5387 10.8882C5.82091 10.4019 6.23044 10.0018 6.72319 9.73098L12.4701 6.4001C12.9572 6.1194 13.5095 5.97165 14.0717 5.97165C14.6339 5.97165 15.1862 6.1194 15.6734 6.4001L21.4203 9.73098C21.8996 10.0172 22.2981 10.4208 22.5783 10.9036C22.8585 11.3864 23.0111 11.9327 23.0218 12.4908V16.8685L28.015 13.9183V9.54058C28.0243 8.97839 27.8801 8.42431 27.5979 7.938C27.3157 7.45169 26.9062 7.05157 26.4135 6.78073L15.7675 0.499739C15.2804 0.219041 14.7281 0.0712891 14.1659 0.0712891C13.6037 0.0712891 13.0514 0.219041 12.5643 0.499739L1.72993 6.78081C1.23721 7.05164 0.827694 7.45175 0.545481 7.93804C0.263269 8.42434 0.11905 8.9784 0.128354 9.54058V22.1979C0.119041 22.7601 0.263258 23.3142 0.545477 23.8005C0.827696 24.2868 1.23722 24.6869 1.72996 24.9577L12.5643 31.2387C13.0514 31.5195 13.6037 31.6673 14.1659 31.6673C14.7281 31.6673 15.2804 31.5195 15.7675 31.2387L23.1161 26.9562L28.1093 24.0061L35.4579 19.7235C35.945 19.4428 36.4973 19.2951 37.0595 19.2951C37.6216 19.2951 38.174 19.4428 38.6611 19.7235L44.408 23.0544C44.8873 23.3407 45.2858 23.7442 45.566 24.227C45.8462 24.7099 45.9988 25.2561 46.0095 25.8142V32.5712C46.0188 33.1333 45.8746 33.6874 45.5924 34.1737C45.3102 34.66 44.9007 35.0601 44.408 35.331L38.6611 38.7571C38.174 39.0378 37.6216 39.1855 37.0595 39.1855C36.4973 39.1855 35.945 39.0378 35.4579 38.7571L29.7109 35.4262C29.2316 35.14 28.833 34.7364 28.5528 34.2536C28.2726 33.7707 28.12 33.2244 28.1093 32.6663V28.2886L23.1161 31.2387V35.6165C23.1067 36.1787 23.2509 36.7328 23.5332 37.2191C23.8154 37.7054 24.2249 38.1055 24.7176 38.3763L35.552 44.6575C36.0391 44.9382 36.5914 45.0859 37.1536 45.0859C37.7158 45.0859 38.2681 44.9382 38.7552 44.6575L49.5896 38.3763C50.0689 38.0901 50.4674 37.6866 50.7477 37.2038C51.0279 36.7209 51.1805 36.1747 51.1912 35.6165V22.9592C51.2005 22.397 51.0563 21.8429 50.7741 21.3566C50.4918 20.8703 50.0823 20.4702 49.5896 20.1994L38.661 13.8232Z" fill="#7B3FE4"/>
<path d="M71.0861 41.0321V30.524C71.8065 31.2907 72.6873 31.8887 73.6657 32.2754C74.644 32.662 75.6957 32.8277 76.7455 32.7607C82.9157 32.7607 87.0858 28.414 87.0858 21.7885C87.0858 15.1629 83.2562 10.8162 77.2562 10.8162C76.092 10.7503 74.9284 10.9562 73.8575 11.4176C72.7866 11.8791 71.8378 12.5834 71.0861 13.4749V11.1538H65.1714V41.0321H71.0861ZM76.0222 27.6966C72.8307 27.6966 70.7457 25.3333 70.7457 21.7885C70.7457 18.2014 72.8307 15.8381 76.0222 15.8381C79.1285 15.8381 81.2561 18.2014 81.2561 21.7885C81.2561 25.3333 79.1285 27.6966 76.0222 27.6966Z" fill="white"/>
<path d="M100.517 32.7613C102.673 32.6942 104.761 31.9937 106.521 30.7472C108.28 29.5007 109.634 27.7634 110.413 25.7523C111.191 23.7411 111.36 21.5452 110.899 19.4386C110.437 17.332 109.365 15.408 107.816 13.907C106.268 12.4059 104.311 11.3942 102.191 10.9982C100.072 10.6022 97.8819 10.8394 95.8959 11.6801C93.9099 12.5209 92.2156 13.928 91.0244 15.7258C89.8333 17.5236 89.198 19.6325 89.198 21.7891C89.1696 23.2674 89.4456 24.7358 90.0089 26.1029C90.5723 27.4699 91.4108 28.7065 92.4725 29.7356C93.5341 30.7648 94.7962 31.5645 96.1801 32.085C97.5641 32.6055 99.0403 32.8357 100.517 32.7613ZM100.517 27.6972C97.3255 27.6972 95.1554 25.2918 95.1554 21.7891C95.1554 18.2442 97.3255 15.8388 100.517 15.8388C103.708 15.8388 105.879 18.2442 105.879 21.7891C105.879 25.2918 103.708 27.6972 100.517 27.6972Z" fill="white"/>
<path d="M121.326 32.4234V1.91211H115.412V32.4234H121.326Z" fill="white"/>
<path d="M139.106 11.1538L134.638 24.8691L130.128 11.1538H124.085L131.872 32.2543L128.724 41.032H134.383L137.404 32.3387L145.191 11.1538H139.106Z" fill="white"/>
<path d="M161.803 13.2643C161.059 12.4447 160.143 11.8001 159.12 11.3769C158.097 10.9537 156.993 10.7623 155.888 10.8166C149.632 10.8166 145.845 15.1633 145.845 21.7889C145.845 28.4144 149.632 32.7611 155.973 32.7611C157.078 32.8279 158.183 32.6379 159.202 32.2059C160.22 31.7739 161.125 31.1117 161.845 30.2713V33.0565C161.878 33.4856 161.823 33.9169 161.682 34.3236C161.541 34.7302 161.318 35.1036 161.026 35.4203C160.735 35.737 160.382 35.9903 159.988 36.1645C159.595 36.3386 159.169 36.4299 158.739 36.4326H148.867V41.0325H159.674C164.526 41.0325 167.76 38.1206 167.76 33.6895V11.1542H161.803V13.2643ZM156.909 27.697C153.761 27.697 151.675 25.3759 151.675 21.7889C151.675 18.2018 153.761 15.8385 156.909 15.8385C160.101 15.8385 162.185 18.2018 162.185 21.7889C162.185 25.3759 160.101 27.697 156.909 27.697V27.697Z" fill="white"/>
<path d="M182.671 32.7613C184.826 32.6944 186.915 31.994 188.675 30.7475C190.435 29.5011 191.788 27.7639 192.567 25.7527C193.346 23.7416 193.515 21.5456 193.053 19.439C192.591 17.3323 191.519 15.4083 189.971 13.9072C188.423 12.4061 186.466 11.3943 184.346 10.9983C182.226 10.6022 180.037 10.8393 178.051 11.6801C176.065 12.5208 174.37 13.9279 173.179 15.7258C171.988 17.5236 171.353 19.6324 171.353 21.7891C171.324 23.2673 171.6 24.7356 172.164 26.1026C172.727 27.4696 173.565 28.7061 174.627 29.7352C175.688 30.7643 176.95 31.564 178.334 32.0846C179.718 32.6052 181.194 32.8356 182.671 32.7613ZM182.671 27.6972C179.479 27.6972 177.31 25.2918 177.31 21.7891C177.31 18.2442 179.479 15.8388 182.671 15.8388C185.863 15.8388 188.033 18.2442 188.033 21.7891C188.033 25.2918 185.863 27.6972 182.671 27.6972Z" fill="white"/>
<path d="M203.182 32.4232V20.7758C203.139 20.1693 203.221 19.5605 203.424 18.9875C203.627 18.4145 203.947 17.8896 204.362 17.4458C204.778 17.002 205.281 16.6489 205.839 16.4086C206.397 16.1683 207 16.0459 207.608 16.0493C208.177 16.0434 208.742 16.1564 209.266 16.381C209.79 16.6057 210.261 16.937 210.649 17.354C211.038 17.7709 211.335 18.2643 211.522 18.8026C211.709 19.3409 211.782 19.9123 211.736 20.4803V32.4232H217.694V19.1721C217.694 14.2768 214.544 10.8163 209.694 10.8163C208.414 10.7362 207.135 10.999 205.991 11.5776C204.846 12.1562 203.876 13.0297 203.182 14.108V11.1539H197.226V32.4232H203.182Z" fill="white"/>
</svg>
