<svg width="87" height="70" viewBox="0 0 87 70" fill="none" xmlns="http://www.w3.org/2000/svg">
<path d="M1 39.9318C3.54974 40.8186 10.8442 41.7609 19.6242 38.4352C22.4511 37.9363 29.8675 38.0361 36.9181 42.4261L45.0661 48.0799C46.5627 49.0776 50.4206 50.807 53.8794 49.7428C58.2028 48.4125 62.6926 50.9068 62.1937 53.5674C61.6949 56.228 60.032 57.8909 55.2097 58.7223C51.3518 59.3874 37.7495 55.6737 31.4306 53.7337" stroke="white" stroke-width="2"/>
<path d="M2.66284 63.7104C4.15943 62.8236 8.88199 61.3159 15.7995 62.3801C22.7171 63.4444 33.8694 66.5927 38.5809 68.0339C43.5141 68.9208 56.0078 69.9961 66.5172 67.2025C77.0265 64.4088 83.4231 57.3915 85.3077 54.232C85.9174 52.0703 85.5737 47.8466 79.3213 48.2457L61.6949 55.2073" stroke="white" stroke-width="2"/>
<circle cx="61.1958" cy="23.6128" r="22.6128" stroke="white" stroke-width="2"/>
<circle cx="61.1958" cy="23.6127" r="13.6333" stroke="white" stroke-width="2"/>
<path d="M63.1181 25.9408C63.1181 25.4457 62.9432 25.0286 62.5933 24.6895C62.2489 24.3504 61.6649 24.0437 60.8415 23.7692C59.6951 23.4193 58.8582 22.9646 58.3307 22.4048C57.8087 21.8397 57.5477 21.1239 57.5477 20.2574C57.5477 19.3747 57.8033 18.6508 58.3146 18.0857C58.8313 17.5206 59.539 17.1842 60.4378 17.0766V15.3086H61.6407V17.0847C62.5449 17.2084 63.2473 17.5879 63.7478 18.223C64.2537 18.858 64.5067 19.7273 64.5067 20.8306H63.0212C63.0212 20.0717 62.8409 19.4689 62.4803 19.0222C62.1197 18.5755 61.6326 18.3521 61.0191 18.3521C60.3786 18.3521 59.8889 18.519 59.5498 18.8527C59.2107 19.181 59.0412 19.6411 59.0412 20.2332C59.0412 20.7821 59.2188 21.2208 59.574 21.5491C59.9346 21.872 60.5239 22.168 61.342 22.4371C62.1655 22.7008 62.8059 22.9942 63.2634 23.3171C63.7263 23.6346 64.0653 24.006 64.2806 24.4312C64.5013 24.8564 64.6116 25.3542 64.6116 25.9247C64.6116 26.8343 64.3371 27.5662 63.7882 28.1206C63.2446 28.6749 62.4803 29.0032 61.4954 29.1055V30.6475H60.3006V29.1055C59.2995 29.014 58.5137 28.6588 57.9432 28.0399C57.3781 27.4155 57.0956 26.5706 57.0956 25.5049H58.5891C58.5891 26.253 58.7855 26.8289 59.1784 27.2325C59.5713 27.6362 60.1284 27.838 60.8496 27.838C61.5546 27.838 62.109 27.6685 62.5126 27.3294C62.9163 26.9904 63.1181 26.5275 63.1181 25.9408Z" fill="white"/>
</svg>
